{
  "accessors": [
    {
      "bufferView": 2,
      "componentType": 5126,
      "count": 61,
      "max": [
        11.386110305786133,
        -0.946880042552948,
        5.952765941619873
      ],
      "min": [
        8.207869529724121,
        -4.125120162963867,
        5.374815940856934
      ],
      "type": "VEC3"
    },
    {
      "bufferView": 2,
      "byteOffset": 732,
      "componentType": 5126,
      "count": 61,
      "max": [
        0.854891836643219,
        0.8580232858657837,
        1.0
      ],
      "min": [
        -0.8596808910369873,
        -0.872215986251831,
        0.4866028428077698
      ],
      "type": "VEC3"
    },
    {
      "bufferView": 1,
      "componentType": 5126,
      "count": 61,
      "max": [
        0.7322999835014343,
        0.36441999673843384
      ],
      "min": [
        0.5114200115203857,
        0.23466002941131592
      ],
      "type": "VEC2"
    },
    {
      "bufferView": 0,
      "componentType": 5125,
      "count": 186,
      "type": "SCALAR"
    },
    {
      "bufferView": 2,
      "byteOffset": 1464,
      "componentType": 5126,
      "count": 61,
      "max": [
        11.386110305786133,
        -0.946880042552948,
        5.940663814544678
      ],
      "min": [
        8.207869529724121,
        -4.125120162963867,
        5.362713813781738
      ],
      "type": "VEC3"
    },
    {
      "bufferView": 2,
      "byteOffset": 2196,
      "componentType": 5126,
      "count": 61,
      "max": [
        0.8548914790153503,
        0.8580232858657837,
        1.0
      ],
      "min": [
        -0.859680712223053,
        -0.872215986251831,
        0.48660317063331604
      ],
      "type": "VEC3"
    },
    {
      "bufferView": 1,
      "byteOffset": 488,
      "componentType": 5126,
      "count": 61,
      "max": [
        0.7031099796295166,
        0.3053699731826782
      ],
      "min": [
        0.6443700194358826,
        0.2466300129890442
      ],
      "type": "VEC2"
    },
    {
      "bufferView": 0,
      "byteOffset": 744,
      "componentType": 5125,
      "count": 186,
      "type": "SCALAR"
    },
    {
      "bufferView": 2,
      "byteOffset": 2928,
      "componentType": 5126,
      "count": 61,
      "max": [
        -8.207889556884766,
        -0.946880042552948,
        5.952765941619873
      ],
      "min": [
        -11.386130332946777,
        -4.125120162963867,
        5.374815940856934
      ],
      "type": "VEC3"
    },
    {
      "bufferView": 2,
      "byteOffset": 3660,
      "componentType": 5126,
      "count": 61,
      "max": [
        0.8548910617828369,
        0.8580472469329834,
        1.0
      ],
      "min": [
        -0.8596808910369873,
        -0.872215986251831,
        0.48660463094711304
      ],
      "type": "VEC3"
    },
    {
      "bufferView": 1,
      "byteOffset": 976,
      "componentType": 5126,
      "count": 61,
      "max": [
        0.7322999835014343,
        0.36441999673843384
      ],
      "min": [
        0.5114200115203857,
        0.23466002941131592
      ],
      "type": "VEC2"
    },
    {
      "bufferView": 0,
      "byteOffset": 1488,
      "componentType": 5125,
      "count": 186,
      "type": "SCALAR"
    },
    {
      "bufferView": 2,
      "byteOffset": 4392,
      "componentType": 5126,
      "count": 61,
      "max": [
        -8.207889556884766,
        -0.946880042552948,
        5.940663814544678
      ],
      "min": [
        -11.386130332946777,
        -4.125120162963867,
        5.362713813781738
      ],
      "type": "VEC3"
    },
    {
      "bufferView": 2,
      "byteOffset": 5124,
      "componentType": 5126,
      "count": 61,
      "max": [
        0.8548907041549683,
        0.8580471873283386,
        1.0
      ],
      "min": [
        -0.859680712223053,
        -0.872215986251831,
        0.4866049885749817
      ],
      "type": "VEC3"
    },
    {
      "bufferView": 1,
      "byteOffset": 1464,
      "componentType": 5126,
      "count": 61,
      "max": [
        0.7031099796295166,
        0.3053699731826782
      ],
      "min": [
        0.6443700194358826,
        0.2466300129890442
      ],
      "type": "VEC2"
    },
    {
      "bufferView": 0,
      "byteOffset": 2232,
      "componentType": 5125,
      "count": 186,
      "type": "SCALAR"
    },
    {
      "bufferView": 2,
      "byteOffset": 5856,
      "componentType": 5126,
      "count": 316,
      "max": [
        2.772700071334839,
        2.725640058517456,
        28.25196075439453
      ],
      "min": [
        -2.772700071334839,
        -3.1400198936462402,
        20.063989639282227
      ],
      "type": "VEC3"
    },
    {
      "bufferView": 2,
      "byteOffset": 9648,
      "componentType": 5126,
      "count": 316,
      "max": [
        0.9954407215118408,
        0.9964599609375,
        0.9999998211860657
      ],
      "min": [
        -0.9954407811164856,
        -0.9998055100440979,
        -0.8272767066955566
      ],
      "type": "VEC3"
    },
    {
      "bufferView": 1,
      "byteOffset": 1952,
      "componentType": 5126,
      "count": 316,
      "max": [
        0.5158799886703491,
        0.9951099753379822
      ],
      "min": [
        0.1967500001192093,
        0.004890024662017822
      ],
      "type": "VEC2"
    },
    {
      "bufferView": 0,
      "byteOffset": 2976,
      "componentType": 5125,
      "count": 1128,
      "type": "SCALAR"
    },
    {
      "bufferView": 2,
      "byteOffset": 13440,
      "componentType": 5126,
      "count": 54,
      "max": [
        0.4389299750328064,
        -2.0815467834472656,
        23.434907913208008
      ],
      "min": [
        -0.4385799765586853,
        -2.2470710277557373,
        23.073057174682617
      ],
      "type": "VEC3"
    },
    {
      "bufferView": 2,
      "byteOffset": 14088,
      "componentType": 5126,
      "count": 54,
      "max": [
        3.469713556114584e-05,
        0.9205092787742615,
        -0.390720933675766
      ],
      "min": [
        -2.957217293442227e-05,
        0.9204977750778198,
        -0.3907480835914612
      ],
      "type": "VEC3"
    },
    {
      "bufferView": 1,
      "byteOffset": 4480,
      "componentType": 5126,
      "count": 54,
      "max": [
        0.5894700288772583,
        0.6085299849510193
      ],
      "min": [
        0.5362899899482727,
        0.5694699883460999
      ],
      "type": "VEC2"
    },
    {
      "bufferView": 0,
      "byteOffset": 7488,
      "componentType": 5125,
      "count": 54,
      "type": "SCALAR"
    },
    {
      "bufferView": 2,
      "byteOffset": 14736,
      "componentType": 5126,
      "count": 54,
      "max": [
        0.4389299750328064,
        -2.0815467834472656,
        23.434907913208008
      ],
      "min": [
        -0.4385799765586853,
        -2.2470710277557373,
        23.073057174682617
      ],
      "type": "VEC3"
    },
    {
      "bufferView": 2,
      "byteOffset": 15384,
      "componentType": 5126,
      "count": 54,
      "max": [
        3.469713556114584e-05,
        0.9205092787742615,
        -0.390720933675766
      ],
      "min": [
        -2.957217293442227e-05,
        0.9204977750778198,
        -0.3907480835914612
      ],
      "type": "VEC3"
    },
    {
      "bufferView": 1,
      "byteOffset": 4912,
      "componentType": 5126,
      "count": 54,
      "max": [
        0.5894700288772583,
        0.6085299849510193
      ],
      "min": [
        0.5362899899482727,
        0.5694699883460999
      ],
      "type": "VEC2"
    },
    {
      "bufferView": 1,
      "byteOffset": 5344,
      "componentType": 5126,
      "count": 54,
      "max": [
        0.5894700288772583,
        0.6085299849510193
      ],
      "min": [
        0.5362899899482727,
        0.5694699883460999
      ],
      "type": "VEC2"
    },
    {
      "bufferView": 0,
      "byteOffset": 7704,
      "componentType": 5125,
      "count": 54,
      "type": "SCALAR"
    },
    {
      "bufferView": 2,
      "byteOffset": 16032,
      "componentType": 5126,
      "count": 8,
      "max": [
        0.6767699122428894,
        -2.011007308959961,
        23.523183822631836
      ],
      "min": [
        -0.6767399311065674,
        -2.3532326221466064,
        22.710832595825195
      ],
      "type": "VEC3"
    },
    {
      "bufferView": 2,
      "byteOffset": 16128,
      "componentType": 5126,
      "count": 8,
      "max": [
        2.0336592569947243e-05,
        1.0,
        1.8924474716186523e-05
      ],
      "min": [
        -0.002377639524638653,
        0.9999971985816956,
        1.710653305053711e-05
      ],
      "type": "VEC3"
    },
    {
      "bufferView": 1,
      "byteOffset": 5776,
      "componentType": 5126,
      "count": 8,
      "max": [
        0.5990700125694275,
        0.6071100234985352
      ],
      "min": [
        0.3970400094985962,
        0.4050799608230591
      ],
      "type": "VEC2"
    },
    {
      "bufferView": 0,
      "byteOffset": 7920,
      "componentType": 5125,
      "count": 12,
      "type": "SCALAR"
    },
    {
      "bufferView": 2,
      "byteOffset": 16224,
      "componentType": 5126,
      "count": 12,
      "max": [
        0.3801199495792389,
        -3.567943811416626,
        4.32629919052124
      ],
      "min": [
        -0.38012996315956116,
        -3.6053824424743652,
        1.0856437683105469
      ],
      "type": "VEC3"
    },
    {
      "bufferView": 2,
      "byteOffset": 16368,
      "componentType": 5126,
      "count": 12,
      "max": [
        0.0,
        1.0,
        0.012091419659554958
      ],
      "min": [
        0.0,
        0.9999269247055054,
        2.892148040700704e-05
      ],
      "type": "VEC3"
    },
    {
      "bufferView": 1,
      "byteOffset": 5840,
      "componentType": 5126,
      "count": 12,
      "max": [
        0.0,
        0.0
      ],
      "min": [
        0.0,
        0.0
      ],
      "type": "VEC2"
    },
    {
      "bufferView": 0,
      "byteOffset": 7968,
      "componentType": 5125,
      "count": 12,
      "type": "SCALAR"
    },
    {
      "bufferView": 2,
      "byteOffset": 16512,
      "componentType": 5126,
      "count": 32,
      "max": [
        30.08083152770996,
        2.9827990531921387,
        -10.511818885803223
      ],
      "min": [
        -30.13178062438965,
        1.350814700126648,
        -15.622486114501953
      ],
      "type": "VEC3"
    },
    {
      "bufferView": 2,
      "byteOffset": 16896,
      "componentType": 5126,
      "count": 32,
      "max": [
        4.799763337359764e-05,
        1.0,
        4.777114008902572e-05
      ],
      "min": [
        -4.777114008902572e-05,
        1.0,
        -4.777114008902572e-05
      ],
      "type": "VEC3"
    },
    {
      "bufferView": 1,
      "byteOffset": 5936,
      "componentType": 5126,
      "count": 32,
      "max": [
        0.9297900199890137,
        0.9466999769210815
      ],
      "min": [
        0.04847000166773796,
        0.07503998279571533
      ],
      "type": "VEC2"
    },
    {
      "bufferView": 0,
      "byteOffset": 8016,
      "componentType": 5125,
      "count": 48,
      "type": "SCALAR"
    },
    {
      "bufferView": 2,
      "byteOffset": 17280,
      "componentType": 5126,
      "count": 26,
      "max": [
        3.5352001190185547,
        -0.9801599979400635,
        5.668950080871582
      ],
      "min": [
        -3.5352001190185547,
        -1.2655199766159058,
        5.27938985824585
      ],
      "type": "VEC3"
    },
    {
      "bufferView": 2,
      "byteOffset": 17592,
      "componentType": 5126,
      "count": 26,
      "max": [
        0.7765456438064575,
        0.8141272068023682,
        0.6421076655387878
      ],
      "min": [
        -0.7765451073646545,
        -0.6873456835746765,
        0.4224074184894562
      ],
      "type": "VEC3"
    },
    {
      "bufferView": 1,
      "byteOffset": 6192,
      "componentType": 5126,
      "count": 26,
      "max": [
        0.7473499774932861,
        0.8528900146484375
      ],
      "min": [
        0.7123399972915649,
        0.816349983215332
      ],
      "type": "VEC2"
    },
    {
      "bufferView": 0,
      "byteOffset": 8208,
      "componentType": 5125,
      "count": 66,
      "type": "SCALAR"
    },
    {
      "bufferView": 2,
      "byteOffset": 17904,
      "componentType": 5126,
      "count": 304,
      "max": [
        3.2212300300598145,
        2.8173298835754395,
        20.063989639282227
      ],
      "min": [
        -3.2212300300598145,
        -3.195349931716919,
        3.5499401092529297
      ],
      "type": "VEC3"
    },
    {
      "bufferView": 2,
      "byteOffset": 21552,
      "componentType": 5126,
      "count": 304,
      "max": [
        0.999705970287323,
        1.0,
        0.587425708770752
      ],
      "min": [
        -0.999705970287323,
        -1.0,
        -0.05614260956645012
      ],
      "type": "VEC3"
    },
    {
      "bufferView": 1,
      "byteOffset": 6400,
      "componentType": 5126,
      "count": 304,
      "max": [
        0.9892399907112122,
        0.9972800016403198
      ],
      "min": [
        0.3901599943637848,
        0.0027199983596801758
      ],
      "type": "VEC2"
    },
    {
      "bufferView": 0,
      "byteOffset": 8472,
      "componentType": 5125,
      "count": 1062,
      "type": "SCALAR"
    },
    {
      "bufferView": 2,
      "byteOffset": 25200,
      "componentType": 5126,
      "count": 26,
      "max": [
        3.5352001190185547,
        -0.9801599979400635,
        5.668950080871582
      ],
      "min": [
        -3.5352001190185547,
        -1.2655199766159058,
        5.27938985824585
      ],
      "type": "VEC3"
    },
    {
      "bufferView": 2,
      "byteOffset": 25512,
      "componentType": 5126,
      "count": 26,
      "max": [
        0.7765456438064575,
        0.8141272068023682,
        0.6421076655387878
      ],
      "min": [
        -0.7765451073646545,
        -0.6873456835746765,
        0.4224074184894562
      ],
      "type": "VEC3"
    },
    {
      "bufferView": 1,
      "byteOffset": 8832,
      "componentType": 5126,
      "count": 26,
      "max": [
        0.7473499774932861,
        0.8528900146484375
      ],
      "min": [
        0.7123399972915649,
        0.816349983215332
      ],
      "type": "VEC2"
    },
    {
      "bufferView": 1,
      "byteOffset": 9040,
      "componentType": 5126,
      "count": 26,
      "max": [
        0.7473499774932861,
        0.8528900146484375
      ],
      "min": [
        0.7123399972915649,
        0.816349983215332
      ],
      "type": "VEC2"
    },
    {
      "bufferView": 0,
      "byteOffset": 12720,
      "componentType": 5125,
      "count": 66,
      "type": "SCALAR"
    },
    {
      "bufferView": 2,
      "byteOffset": 25824,
      "componentType": 5126,
      "count": 30,
      "max": [
        23.037477493286133,
        1.345070242881775,
        -4.315374374389648
      ],
      "min": [
        -23.03797721862793,
        -1.2101402282714844,
        -10.827829360961914
      ],
      "type": "VEC3"
    },
    {
      "bufferView": 2,
      "byteOffset": 26184,
      "componentType": 5126,
      "count": 30,
      "max": [
        6.137798209238099e-06,
        1.0,
        2.423965099751513e-07
      ],
      "min": [
        -6.137781383586116e-06,
        1.0,
        -8.586800504417624e-06
      ],
      "type": "VEC3"
    },
    {
      "bufferView": 1,
      "byteOffset": 9248,
      "componentType": 5126,
      "count": 30,
      "max": [
        0.0,
        0.0
      ],
      "min": [
        0.0,
        0.0
      ],
      "type": "VEC2"
    },
    {
      "bufferView": 0,
      "byteOffset": 12984,
      "componentType": 5125,
      "count": 30,
      "type": "SCALAR"
    },
    {
      "bufferView": 2,
      "byteOffset": 26544,
      "componentType": 5126,
      "count": 198,
      "max": [
        -2.887779951095581,
        1.9341800212860107,
        5.556940078735352
      ],
      "min": [
        -26.97563934326172,
        -2.1760001182556152,
        -13.231220245361328
      ],
      "type": "VEC3"
    },
    {
      "bufferView": 2,
      "byteOffset": 28920,
      "componentType": 5126,
      "count": 198,
      "max": [
        0.9948741793632507,
        0.9965884685516357,
        0.8176653981208801
      ],
      "min": [
        -0.9999997019767761,
        -0.9925102591514587,
        -0.8689103126525879
      ],
      "type": "VEC3"
    },
    {
      "bufferView": 1,
      "byteOffset": 9488,
      "componentType": 5126,
      "count": 198,
      "max": [
        0.5343899726867676,
        0.702180027961731
      ],
      "min": [
        0.004220000002533197,
        0.35839998722076416
      ],
      "type": "VEC2"
    },
    {
      "bufferView": 0,
      "byteOffset": 13104,
      "componentType": 5125,
      "count": 459,
      "type": "SCALAR"
    },
    {
      "bufferView": 2,
      "byteOffset": 31296,
      "componentType": 5126,
      "count": 219,
      "max": [
        26.97563934326172,
        1.9341800212860107,
        5.556940078735352
      ],
      "min": [
        2.887779951095581,
        -2.1760001182556152,
        -13.231220245361328
      ],
      "type": "VEC3"
    },
    {
      "bufferView": 2,
      "byteOffset": 33924,
      "componentType": 5126,
      "count": 219,
      "max": [
        0.9999996423721313,
        0.9965884685516357,
        0.8176694512367249
      ],
      "min": [
        -0.9948739409446716,
        -0.9925103783607483,
        -0.8689108490943909
      ],
      "type": "VEC3"
    },
    {
      "bufferView": 1,
      "byteOffset": 11072,
      "componentType": 5126,
      "count": 219,
      "max": [
        0.5343899726867676,
        0.7010800242424011
      ],
      "min": [
        0.002749999985098839,
        0.3017200231552124
      ],
      "type": "VEC2"
    },
    {
      "bufferView": 0,
      "byteOffset": 14940,
      "componentType": 5125,
      "count": 459,
      "type": "SCALAR"
    },
    {
      "bufferView": 2,
      "byteOffset": 36552,
      "componentType": 5126,
      "count": 72,
      "max": [
        -10.080419540405273,
        1.8975499868392944,
        0.7375500202178955
      ],
      "min": [
        -26.839569091796875,
        -0.4071800112724304,
        -11.09197998046875
      ],
      "type": "VEC3"
    },
    {
      "bufferView": 2,
      "byteOffset": 37416,
      "componentType": 5126,
      "count": 72,
      "max": [
        0.9803398847579956,
        0.9944928288459778,
        0.8246272802352905
      ],
      "min": [
        -0.809306800365448,
        -0.9893417954444885,
        -0.8235152959823608
      ],
      "type": "VEC3"
    },
    {
      "bufferView": 1,
      "byteOffset": 12824,
      "componentType": 5126,
      "count": 72,
      "max": [
        0.3375200033187866,
        0.7002099752426147
      ],
      "min": [
        0.06792999804019928,
        0.44989001750946045
      ],
      "type": "VEC2"
    },
    {
      "bufferView": 0,
      "byteOffset": 16776,
      "componentType": 5125,
      "count": 150,
      "type": "SCALAR"
    },
    {
      "bufferView": 2,
      "byteOffset": 38280,
      "componentType": 5126,
      "count": 72,
      "max": [
        26.839990615844727,
        1.8975499868392944,
        0.7375500202178955
      ],
      "min": [
        10.080840110778809,
        -0.4071800112724304,
        -11.09197998046875
      ],
      "type": "VEC3"
    },
    {
      "bufferView": 2,
      "byteOffset": 39144,
      "componentType": 5126,
      "count": 72,
      "max": [
        0.8092944025993347,
        0.9944930076599121,
        0.8246274590492249
      ],
      "min": [
        -0.9803460240364075,
        -0.9893419742584229,
        -0.8235017657279968
      ],
      "type": "VEC3"
    },
    {
      "bufferView": 1,
      "byteOffset": 13400,
      "componentType": 5126,
      "count": 72,
      "max": [
        0.3375200033187866,
        0.7002099752426147
      ],
      "min": [
        0.06792999804019928,
        0.44989001750946045
      ],
      "type": "VEC2"
    },
    {
      "bufferView": 0,
      "byteOffset": 17376,
      "componentType": 5125,
      "count": 150,
      "type": "SCALAR"
    },
    {
      "bufferView": 2,
      "byteOffset": 40008,
      "componentType": 5126,
      "count": 109,
      "max": [
        0.8767200112342834,
        0.6568300127983093,
        -32.15824890136719
      ],
      "min": [
        -0.8768200278282166,
        0.19241000711917877,
        -34.90850067138672
      ],
      "type": "VEC3"
    },
    {
      "bufferView": 2,
      "byteOffset": 41316,
      "componentType": 5126,
      "count": 109,
      "max": [
        0.9796003699302673,
        1.0,
        0.5925639271736145
      ],
      "min": [
        -0.9795952439308167,
        -0.9999991655349731,
        -1.0
      ],
      "type": "VEC3"
    },
    {
      "bufferView": 1,
      "byteOffset": 13976,
      "componentType": 5126,
      "count": 109,
      "max": [
        0.9376800060272217,
        0.8498200178146362
      ],
      "min": [
        0.5458700060844421,
        0.15017998218536377
      ],
      "type": "VEC2"
    },
    {
      "bufferView": 0,
      "byteOffset": 17976,
      "componentType": 5125,
      "count": 228,
      "type": "SCALAR"
    },
    {
      "bufferView": 2,
      "byteOffset": 42624,
      "componentType": 5126,
      "count": 2978,
      "max": [
        11.714103698730469,
        0.8587300181388855,
        26.933029174804688
      ],
      "min": [
        -11.713979721069336,
        -4.396231174468994,
        -4.742539882659912
      ],
      "type": "VEC3"
    },
    {
      "bufferView": 2,
      "byteOffset": 78360,
      "componentType": 5126,
      "count": 2978,
      "max": [
        1.0,
        0.9999932050704956,
        0.9999999403953552
      ],
      "min": [
        -1.0,
        -1.0,
        -0.9999977946281433
      ],
      "type": "VEC3"
    },
    {
      "bufferView": 1,
      "byteOffset": 14848,
      "componentType": 5126,
      "count": 2978,
      "max": [
        0.9378700256347656,
        0.8924700021743774
      ],
      "min": [
        0.0007999999797903001,
        0.2249400019645691
      ],
      "type": "VEC2"
    },
    {
      "bufferView": 0,
      "byteOffset": 18888,
      "componentType": 5125,
      "count": 5982,
      "type": "SCALAR"
    },
    {
      "bufferView": 2,
      "byteOffset": 114096,
      "componentType": 5126,
      "count": 7393,
      "max": [
        29.896509170532227,
        11.288479804992676,
        28.162200927734375
      ],
      "min": [
        -29.896818161010742,
        -4.430580139160156,
        -34.517539978027344
      ],
      "type": "VEC3"
    },
    {
      "bufferView": 2,
      "byteOffset": 202812,
      "componentType": 5126,
      "count": 7393,
      "max": [
        1.0,
        1.0,
        0.9999284148216248
      ],
      "min": [
        -1.0,
        -1.0,
        -1.0
      ],
      "type": "VEC3"
    },
    {
      "bufferView": 1,
      "byteOffset": 38672,
      "componentType": 5126,
      "count": 7393,
      "max": [
        0.9971799850463867,
        0.9995399713516235
      ],
      "min": [
        0.0006500000017695129,
        0.001659989356994629
      ],
      "type": "VEC2"
    },
    {
      "bufferView": 0,
      "byteOffset": 42816,
      "componentType": 5125,
      "count": 17070,
      "type": "SCALAR"
    },
    {
      "bufferView": 2,
      "byteOffset": 291528,
      "componentType": 5126,
      "count": 176,
      "max": [
        0.5149000287055969,
        3.2555999755859375,
        10.730549812316895
      ],
      "min": [
        -0.5149000287055969,
        -3.571429967880249,
        -21.129770278930664
      ],
      "type": "VEC3"
    },
    {
      "bufferView": 2,
      "byteOffset": 293640,
      "componentType": 5126,
      "count": 176,
      "max": [
        1.0,
        1.0,
        0.8236821889877319
      ],
      "min": [
        -1.0,
        -4.519102559465998e-21,
        -0.8230715990066528
      ],
      "type": "VEC3"
    },
    {
      "bufferView": 1,
      "byteOffset": 97816,
      "componentType": 5126,
      "count": 176,
      "max": [
        0.09472999721765518,
        0.14442002773284912
      ],
      "min": [
        0.0015899999998509884,
        0.013979971408843994
      ],
      "type": "VEC2"
    },
    {
      "bufferView": 0,
      "byteOffset": 111096,
      "componentType": 5125,
      "count": 636,
      "type": "SCALAR"
    },
    {
      "bufferView": 2,
      "byteOffset": 295752,
      "componentType": 5126,
      "count": 6,
      "max": [
        1.6408255062600336e-16,
        1.3442100286483765,
        0.30208998918533325
      ],
      "min": [
        -3.6994130884107065e-17,
        -0.297760009765625,
        -1.3398799896240234
      ],
      "type": "VEC3"
    },
    {
      "bufferView": 2,
      "byteOffset": 295824,
      "componentType": 5126,
      "count": 6,
      "max": [
        1.0,
        0.0,
        1.2246063538223773e-16
      ],
      "min": [
        1.0,
        0.0,
        1.2246062214734792e-16
      ],
      "type": "VEC3"
    },
    {
      "bufferView": 1,
      "byteOffset": 99224,
      "componentType": 5126,
      "count": 6,
      "max": [
        0.0,
        0.0
      ],
      "min": [
        0.0,
        0.0
      ],
      "type": "VEC2"
    },
    {
      "bufferView": 0,
      "byteOffset": 113640,
      "componentType": 5125,
      "count": 6,
      "type": "SCALAR"
    }
  ],
  "asset": {
    "extras": {
      "author": "Nobilis 2 (https://sketchfab.com/nobilishornet2)",
      "license": "CC-BY-4.0 (http://creativecommons.org/licenses/by/4.0/)",
      "source": "https://sketchfab.com/3d-models/boeing-787-9-b6711e2e698e4e469675c1154a50b7a3",
      "title": "Boeing 787-9"
    },
    "generator": "Sketchfab-17.8.0",
    "version": "2.0"
  },
  "bufferViews": [
    {
      "buffer": 0,
      "byteLength": 113664,
      "name": "floatBufferViews",
      "target": 34963
    },
    {
      "buffer": 0,
      "byteLength": 99272,
      "byteOffset": 113664,
      "byteStride": 8,
      "name": "floatBufferViews",
      "target": 34962
    },
    {
      "buffer": 0,
      "byteLength": 295896,
      "byteOffset": 212936,
      "byteStride": 12,
      "name": "floatBufferViews",
      "target": 34962
    }
  ],
  "buffers": [
    {
      "byteLength": 508832,
      "uri": "scene.bin"
    }
  ],
  "images": [
    {
      "uri": "textures/Material.004_baseColor.jpg"
    }
  ],
  "materials": [
    {
      "doubleSided": true,
      "name": "Material.004",
      "pbrMetallicRoughness": {
        "baseColorTexture": {
          "index": 0
        },
        "metallicFactor": 0.0,
        "roughnessFactor": 0.8211145618000169
      }
    },
    {
      "doubleSided": true,
      "name": "material11",
      "pbrMetallicRoughness": {
        "baseColorFactor": [
          0.8,
          0.8,
          0.8,
          1.0
        ],
        "metallicFactor": 0.0,
        "roughnessFactor": 0.7470177871865296
      }
    },
    {
      "doubleSided": true,
      "name": "Material.005",
      "pbrMetallicRoughness": {
        "baseColorTexture": {
          "index": 0
        },
        "metallicFactor": 0.0,
        "roughnessFactor": 0.8211145618000169
      }
    },
    {
      "doubleSided": true,
      "name": "Material.007",
      "pbrMetallicRoughness": {
        "baseColorTexture": {
          "index": 0
        },
        "metallicFactor": 0.0,
        "roughnessFactor": 0.22513995647152463
      }
    },
    {
      "doubleSided": true,
      "name": "material07",
      "pbrMetallicRoughness": {
        "baseColorFactor": [
          0.8,
          0.8,
          0.8,
          1.0
        ],
        "metallicFactor": 0.0
      }
    },
    {
      "doubleSided": true,
      "name": "material_0",
      "pbrMetallicRoughness": {
        "baseColorFactor": [
          0.8,
          0.8,
          0.8,
          1.0
        ],
        "metallicFactor": 0.0,
        "roughnessFactor": 0.8040408205773457
      }
    },
    {
      "doubleSided": true,
      "name": "material04",
      "pbrMetallicRoughness": {
        "baseColorFactor": [
          0.0,
          0.0,
          0.0,
          1.0
        ],
        "metallicFactor": 0.0
      }
    },
    {
      "doubleSided": true,
      "name": "material00",
      "pbrMetallicRoughness": {
        "baseColorFactor": [
          0.066667,
          0.101961,
          0.141176,
          1.0
        ],
        "metallicFactor": 0.0
      }
    },
    {
      "doubleSided": true,
      "name": "material05",
      "pbrMetallicRoughness": {
        "baseColorFactor": [
          0.0,
          0.0,
          0.0,
          1.0
        ],
        "metallicFactor": 0.0
      }
    },
    {
      "doubleSided": true,
      "name": "Material.006",
      "pbrMetallicRoughness": {
        "baseColorTexture": {
          "index": 0
        },
        "metallicFactor": 0.0,
        "roughnessFactor": 0.7748600435284754
      }
    },
    {
      "doubleSided": true,
      "name": "material01",
      "pbrMetallicRoughness": {
        "baseColorFactor": [
          0.015686,
          0.0,
          0.0,
          1.0
        ],
        "metallicFactor": 0.0
      }
    },
    {
      "doubleSided": true,
      "name": "Material.003",
      "pbrMetallicRoughness": {
        "baseColorTexture": {
          "index": 0
        },
        "metallicFactor": 0.0,
        "roughnessFactor": 0.8211145618000169
      }
    },
    {
      "doubleSided": true,
      "name": "Material.002",
      "pbrMetallicRoughness": {
        "baseColorTexture": {
          "index": 0
        },
        "metallicFactor": 0.0,
        "roughnessFactor": 0.8211145618000169
      }
    },
    {
      "doubleSided": true,
      "name": "material09",
      "pbrMetallicRoughness": {
        "baseColorFactor": [
          0.8,
          0.8,
          0.8,
          1.0
        ],
        "metallicFactor": 0.0,
        "roughnessFactor": 0.7470177871865296
      }
    },
    {
      "doubleSided": true,
      "name": "Material.008",
      "pbrMetallicRoughness": {
        "baseColorTexture": {
          "index": 0
        },
        "metallicFactor": 0.0,
        "roughnessFactor": 0.7707456386540721
      }
    },
    {
      "doubleSided": true,
      "name": "Material.001",
      "pbrMetallicRoughness": {
        "baseColorTexture": {
          "index": 0
        },
        "metallicFactor": 0.0,
        "roughnessFactor": 0.7748600435284754
      }
    },
    {
      "doubleSided": true,
      "name": "Material.009",
      "pbrMetallicRoughness": {
        "baseColorTexture": {
          "index": 0
        },
        "metallicFactor": 0.0,
        "roughnessFactor": 0.7748600435284754
      }
    },
    {
      "doubleSided": true,
      "name": "material02",
      "pbrMetallicRoughness": {
        "baseColorFactor": [
          0.560784,
          0.878431,
          0.341176,
          1.0
        ],
        "metallicFactor": 0.0
      }
    }
  ],
  "meshes": [
    {
      "name": "Object_5_Material.004_0",
      "primitives": [
        {
          "attributes": {
            "NORMAL": 1,
            "POSITION": 0,
            "TEXCOORD_0": 2
          },
          "indices": 3,
          "material": 0,
          "mode": 4
        }
      ]
    },
    {
      "name": "Object_7_material11_0",
      "primitives": [
        {
          "attributes": {
            "NORMAL": 5,
            "POSITION": 4,
            "TEXCOORD_0": 6
          },
          "indices": 7,
          "material": 1,
          "mode": 4
        }
      ]
    },
    {
      "name": "Object_9_Material.005_0",
      "primitives": [
        {
          "attributes": {
            "NORMAL": 9,
            "POSITION": 8,
            "TEXCOORD_0": 10
          },
          "indices": 11,
          "material": 2,
          "mode": 4
        }
      ]
    },
    {
      "name": "Object_11_material11_0",
      "primitives": [
        {
          "attributes": {
            "NORMAL": 13,
            "POSITION": 12,
            "TEXCOORD_0": 14
          },
          "indices": 15,
          "material": 1,
          "mode": 4
        }
      ]
    },
    {
      "name": "Object_13_Material.007_0",
      "primitives": [
        {
          "attributes": {
            "NORMAL": 17,
            "POSITION": 16,
            "TEXCOORD_0": 18
          },
          "indices": 19,
          "material": 3,
          "mode": 4
        }
      ]
    },
    {
      "name": "Object_15_material07_0",
      "primitives": [
        {
          "attributes": {
            "NORMAL": 21,
            "POSITION": 20,
            "TEXCOORD_0": 22
          },
          "indices": 23,
          "material": 4,
          "mode": 4
        }
      ]
    },
    {
      "name": "Object_17_material08_0",
      "primitives": [
        {
          "attributes": {
            "NORMAL": 25,
            "POSITION": 24,
            "TEXCOORD_0": 26,
            "TEXCOORD_1": 27
          },
          "indices": 28,
          "material": 5,
          "mode": 4
        }
      ]
    },
    {
      "name": "Object_19_material04_0",
      "primitives": [
        {
          "attributes": {
            "NORMAL": 30,
            "POSITION": 29,
            "TEXCOORD_0": 31
          },
          "indices": 32,
          "material": 6,
          "mode": 4
        }
      ]
    },
    {
      "name": "Object_21_material00_0",
      "primitives": [
        {
          "attributes": {
            "NORMAL": 34,
            "POSITION": 33,
            "TEXCOORD_0": 35
          },
          "indices": 36,
          "material": 7,
          "mode": 4
        }
      ]
    },
    {
      "name": "Object_23_material05_0",
      "primitives": [
        {
          "attributes": {
            "NORMAL": 38,
            "POSITION": 37,
            "TEXCOORD_0": 39
          },
          "indices": 40,
          "material": 8,
          "mode": 4
        }
      ]
    },
    {
      "name": "Object_25_material07_0",
      "primitives": [
        {
          "attributes": {
            "NORMAL": 42,
            "POSITION": 41,
            "TEXCOORD_0": 43
          },
          "indices": 44,
          "material": 4,
          "mode": 4
        }
      ]
    },
    {
      "name": "Object_27_Material.006_0",
      "primitives": [
        {
          "attributes": {
            "NORMAL": 46,
            "POSITION": 45,
            "TEXCOORD_0": 47
          },
          "indices": 48,
          "material": 9,
          "mode": 4
        }
      ]
    },
    {
      "name": "Object_29_material08_0",
      "primitives": [
        {
          "attributes": {
            "NORMAL": 50,
            "POSITION": 49,
            "TEXCOORD_0": 51,
            "TEXCOORD_1": 52
          },
          "indices": 53,
          "material": 5,
          "mode": 4
        }
      ]
    },
    {
      "name": "Object_31_material01_0",
      "primitives": [
        {
          "attributes": {
            "NORMAL": 55,
            "POSITION": 54,
            "TEXCOORD_0": 56
          },
          "indices": 57,
          "material": 10,
          "mode": 4
        }
      ]
    },
    {
      "name": "Object_33_Material.003_0",
      "primitives": [
        {
          "attributes": {
            "NORMAL": 59,
            "POSITION": 58,
            "TEXCOORD_0": 60
          },
          "indices": 61,
          "material": 11,
          "mode": 4
        }
      ]
    },
    {
      "name": "Object_35_Material.002_0",
      "primitives": [
        {
          "attributes": {
            "NORMAL": 63,
            "POSITION": 62,
            "TEXCOORD_0": 64
          },
          "indices": 65,
          "material": 12,
          "mode": 4
        }
      ]
    },
    {
      "name": "Object_37_material09_0",
      "primitives": [
        {
          "attributes": {
            "NORMAL": 67,
            "POSITION": 66,
            "TEXCOORD_0": 68
          },
          "indices": 69,
          "material": 13,
          "mode": 4
        }
      ]
    },
    {
      "name": "Object_39_material09_0",
      "primitives": [
        {
          "attributes": {
            "NORMAL": 71,
            "POSITION": 70,
            "TEXCOORD_0": 72
          },
          "indices": 73,
          "material": 13,
          "mode": 4
        }
      ]
    },
    {
      "name": "Object_41_material07_0",
      "primitives": [
        {
          "attributes": {
            "NORMAL": 75,
            "POSITION": 74,
            "TEXCOORD_0": 76
          },
          "indices": 77,
          "material": 4,
          "mode": 4
        }
      ]
    },
    {
      "name": "Object_43_Material.008_0",
      "primitives": [
        {
          "attributes": {
            "NORMAL": 79,
            "POSITION": 78,
            "TEXCOORD_0": 80
          },
          "indices": 81,
          "material": 14,
          "mode": 4
        }
      ]
    },
    {
      "name": "Object_45_Material.001_0",
      "primitives": [
        {
          "attributes": {
            "NORMAL": 83,
            "POSITION": 82,
            "TEXCOORD_0": 84
          },
          "indices": 85,
          "material": 15,
          "mode": 4
        }
      ]
    },
    {
      "name": "Object_47_Material.009_0",
      "primitives": [
        {
          "attributes": {
            "NORMAL": 87,
            "POSITION": 86,
            "TEXCOORD_0": 88
          },
          "indices": 89,
          "material": 16,
          "mode": 4
        }
      ]
    },
    {
      "name": "Object_49_material02_0",
      "primitives": [
        {
          "attributes": {
            "NORMAL": 91,
            "POSITION": 90,
            "TEXCOORD_0": 92
          },
          "indices": 93,
          "material": 17,
          "mode": 4
        }
      ]
    }
  ],
  "nodes": [
    {
      "children": [
        1
      ],
      "matrix": [
        1.0,
        0.0,
        0.0,
        0.0,
        0.0,
        2.220446049250313e-16,
        -1.0,
        0.0,
        0.0,
        1.0,
        2.220446049250313e-16,
        0.0,
        0.0,
        0.0,
        0.0,
        1.0
      ],
      "name": "Sketchfab_model"
    },
    {
      "children": [
        2
      ],
      "matrix": [
        0.009999999776482582,
        0.0,
        0.0,
        0.0,
        0.0,
        0.0,
        0.009999999776482582,
        0.0,
        0.0,
        -0.009999999776482582,
        0.0,
        0.0,
        0.0,
        0.0,
        0.0,
        1.0
      ],
      "name": "62815082d9544151a64b112358d08d42.fbx"
    },
    {
      "children": [
        3,
        6,
        8
      ],
      "name": "RootNode"
    },
    {
      "children": [
        4
      ],
      "matrix": [
        -29.08647719990347,
        -5.518906457566863,
        -95.51711910171437,
        0.0,
        56.63930913109449,
        79.46723428563203,
        -21.83912397841966,
        0.0,
        77.11008775993375,
        -60.45246356562044,
        -19.98834696773717,
        0.0,
        407.6245422363281,
        590.38623046875,
        -100.54539489746094,
        1.0
      ],
      "name": "Light"
    },
    {
      "children": [
        5
      ],
      "matrix": [
        1.0,
        0.0,
        0.0,
        0.0,
        0.0,
        2.220446049250313e-16,
        1.0,
        0.0,
        0.0,
        -1.0,
        2.220446049250313e-16,
        0.0,
        0.0,
        0.0,
        0.0,
        1.0
      ],
      "name": "Object_4"
    },
    {
      "name": "Object_5"
    },
    {
      "children": [
        7
      ],
      "matrix": [
        -65.15583280329096,
        -44.52713576570858,
        -61.41703047373549,
        0.0,
        -32.40134137821245,
        89.53957451233616,
        -30.542088974418615,
        0.0,
        68.59205472129975,
        -1.0718647115348782e-05,
        -72.7676336239627,
        0.0,
        735.88916015625,
        495.8309326171875,
        692.5791015625,
        1.0
      ],
      "name": "Camera"
    },
    {
      "name": "Object_7"
    },
    {
      "children": [
        9
      ],
      "matrix": [
        100.0,
        0.0,
        0.0,
        0.0,
        0.0,
        -1.629207166814156e-05,
        -100.00002288818227,
        0.0,
        0.0,
        100.00002288818227,
        -1.629207166814156e-05,
        0.0,
        0.0,
        0.0,
        0.0,
        1.0
      ],
      "name": "Sketchfab_model"
    },
    {
      "children": [
        10
      ],
      "matrix": [
        1.0,
        0.0,
        0.0,
        0.0,
        0.0,
        1.0,
        -2.6469779601696874e-23,
        0.0,
        0.0,
        2.6469779601696874e-23,
        1.0,
        0.0,
        0.0,
        0.0,
        0.0,
        1.0
      ],
      "name": "root"
    },
    {
      "children": [
        11
      ],
      "matrix": [
        1.0,
        0.0,
        0.0,
        0.0,
        0.0,
        -1.6292069881348986e-07,
        1.0000001192092762,
        0.0,
        0.0,
        -1.0000001192092762,
        -1.6292069881348986e-07,
        0.0,
        0.0,
        0.0,
        0.0,
        1.0
      ],
      "name": "GLTF_SceneRootNode"
    },
    {
      "children": [
        12,
        15,
        18,
        21,
        24,
        27,
        30,
        33,
        36,
        39,
        42,
        45,
        48,
        51,
        54,
        57,
        60,
        63,
        66,
        69,
        72,
        75,
        78
      ],
      "matrix": [
        1.0,
        0.0,
        0.0,
        0.0,
        0.0,
        1.0,
        1.4210854715202004e-14,
        0.0,
        0.0,
        -1.4210854715202004e-14,
        1.0,
        0.0,
        0.0,
        0.0,
        0.0,
        1.0
      ],
      "name": "node_0_146"
    },
    {
      "children": [
        13
      ],
      "matrix": [
        1.0,
        0.0,
        0.0,
        0.0,
        0.0,
        1.0,
        1.4210854715202002e-14,
        0.0,
        0.0,
        -1.4210854715202002e-14,
        1.0,
        0.0,
        0.0,
        0.0,
        0.0,
        1.0
      ],
      "name": "custom_vis_ENG_N1_RPM_1_08_mcx_VC_0"
    },
    {
      "children": [
        14
      ],
      "matrix": [
        1.0,
        0.0,
        0.0,
        0.0,
        0.0,
        1.0,
        1.4210854715201997e-14,
        0.0,
        0.0,
        -1.4210854715201997e-14,
        1.0,
        0.0,
        0.0,
        0.0,
        0.0,
        1.0
      ],
      "name": "Object_5"
    },
    {
      "mesh": 0,
      "name": "Object_5_Material.004_0"
    },
    {
      "children": [
        16
      ],
      "matrix": [
        1.0,
        0.0,
        0.0,
        0.0,
        0.0,
        1.0,
        1.4210854715202002e-14,
        0.0,
        0.0,
        -1.4210854715202002e-14,
        1.0,
        0.0,
        0.0,
        0.0,
        0.0,
        1.0
      ],
      "name": "custom_vis_ENG_N1_RPM_1_09_mcx_VC_1"
    },
    {
      "children": [
        17
      ],
      "matrix": [
        1.0,
        0.0,
        0.0,
        0.0,
        0.0,
        1.0,
        1.4210854715201997e-14,
        0.0,
        0.0,
        -1.4210854715201997e-14,
        1.0,
        0.0,
        0.0,
        0.0,
        0.0,
        1.0
      ],
      "name": "Object_7"
    },
    {
      "mesh": 1,
      "name": "Object_7_material11_0"
    },
    {
      "children": [
        19
      ],
      "matrix": [
        1.0,
        0.0,
        0.0,
        0.0,
        0.0,
        1.0,
        1.4210854715202002e-14,
        0.0,
        0.0,
        -1.4210854715202002e-14,
        1.0,
        0.0,
        0.0,
        0.0,
        0.0,
        1.0
      ],
      "name": "custom_vis_ENG_N1_RPM_2_10_mcx_VC_2"
    },
    {
      "children": [
        20
      ],
      "matrix": [
        1.0,
        0.0,
        0.0,
        0.0,
        0.0,
        1.0,
        1.4210854715201997e-14,
        0.0,
        0.0,
        -1.4210854715201997e-14,
        1.0,
        0.0,
        0.0,
        0.0,
        0.0,
        1.0
      ],
      "name": "Object_9"
    },
    {
      "mesh": 2,
      "name": "Object_9_Material.005_0"
    },
    {
      "children": [
        22
      ],
      "matrix": [
        1.0,
        0.0,
        0.0,
        0.0,
        0.0,
        1.0,
        1.4210854715202002e-14,
        0.0,
        0.0,
        -1.4210854715202002e-14,
        1.0,
        0.0,
        0.0,
        0.0,
        0.0,
        1.0
      ],
      "name": "custom_vis_ENG_N1_RPM_2_11_mcx_VC_3"
    },
    {
      "children": [
        23
      ],
      "matrix": [
        1.0,
        0.0,
        0.0,
        0.0,
        0.0,
        1.0,
        1.4210854715201997e-14,
        0.0,
        0.0,
        -1.4210854715201997e-14,
        1.0,
        0.0,
        0.0,
        0.0,
        0.0,
        1.0
      ],
      "name": "Object_11"
    },
    {
      "mesh": 3,
      "name": "Object_11_material11_0"
    },
    {
      "children": [
        25
      ],
      "matrix": [
        1.0,
        0.0,
        0.0,
        0.0,
        0.0,
        1.0,
        1.4210854715202002e-14,
        0.0,
        0.0,
        -1.4210854715202002e-14,
        1.0,
        0.0,
        0.0,
        0.0,
        0.0,
        1.0
      ],
      "name": "custom_vis_GEAR_ANIMATION_POSITION_0_03_mcx_VC_0_4"
    },
    {
      "children": [
        26
      ],
      "matrix": [
        1.0,
        0.0,
        0.0,
        0.0,
        0.0,
        1.0,
        1.4210854715201997e-14,
        0.0,
        0.0,
        -1.4210854715201997e-14,
        1.0,
        0.0,
        0.0,
        0.0,
        0.0,
        1.0
      ],
      "name": "Object_13"
    },
    {
      "mesh": 4,
      "name": "Object_13_Material.007_0"
    },
    {
      "children": [
        28
      ],
      "matrix": [
        1.0,
        0.0,
        0.0,
        0.0,
        0.0,
        1.0,
        1.4210854715202002e-14,
        0.0,
        0.0,
        -1.4210854715202002e-14,
        1.0,
        0.0,
        0.0,
        0.0,
        0.0,
        1.0
      ],
      "name": "custom_vis_GEAR_ANIMATION_POSITION_0_03_mcx_VC_1_5"
    },
    {
      "children": [
        29
      ],
      "matrix": [
        1.0,
        0.0,
        0.0,
        0.0,
        0.0,
        1.0,
        1.4210854715201997e-14,
        0.0,
        0.0,
        -1.4210854715201997e-14,
        1.0,
        0.0,
        0.0,
        0.0,
        0.0,
        1.0
      ],
      "name": "Object_15"
    },
    {
      "mesh": 5,
      "name": "Object_15_material07_0"
    },
    {
      "children": [
        31
      ],
      "matrix": [
        1.0,
        0.0,
        0.0,
        0.0,
        0.0,
        1.0,
        1.4210854715202002e-14,
        0.0,
        0.0,
        -1.4210854715202002e-14,
        1.0,
        0.0,
        0.0,
        0.0,
        0.0,
        1.0
      ],
      "name": "custom_vis_GEAR_ANIMATION_POSITION_0_04_mcx_VC_1_6"
    },
    {
      "children": [
        32
      ],
      "matrix": [
        1.0,
        0.0,
        0.0,
        0.0,
        0.0,
        1.0,
        1.4210854715201997e-14,
        0.0,
        0.0,
        -1.4210854715201997e-14,
        1.0,
        0.0,
        0.0,
        0.0,
        0.0,
        1.0
      ],
      "name": "Object_17"
    },
    {
      "mesh": 6,
      "name": "Object_17_material08_0"
    },
    {
      "children": [
        34
      ],
      "matrix": [
        1.0,
        0.0,
        0.0,
        0.0,
        0.0,
        1.0,
        1.4210854715202002e-14,
        0.0,
        0.0,
        -1.4210854715202002e-14,
        1.0,
        0.0,
        0.0,
        0.0,
        0.0,
        1.0
      ],
      "name": "custom_vis_GEAR_ANIMATION_POSITION_0_04_mcx_VC_2_7"
    },
    {
      "children": [
        35
      ],
      "matrix": [
        1.0,
        0.0,
        0.0,
        0.0,
        0.0,
        1.0,
        1.4210854715201997e-14,
        0.0,
        0.0,
        -1.4210854715201997e-14,
        1.0,
        0.0,
        0.0,
        0.0,
        0.0,
        1.0
      ],
      "name": "Object_19"
    },
    {
      "mesh": 7,
      "name": "Object_19_material04_0"
    },
    {
      "children": [
        37
      ],
      "matrix": [
        1.0,
        0.0,
        0.0,
        0.0,
        0.0,
        1.0,
        1.4210854715202002e-14,
        0.0,
        0.0,
        -1.4210854715202002e-14,
        1.0,
        0.0,
        0.0,
        0.0,
        0.0,
        1.0
      ],
      "name": "custom_vis_LIGHT_LANDING_00_mcx_VC_0_8"
    },
    {
      "children": [
        38
      ],
      "matrix": [
        1.0,
        0.0,
        0.0,
        0.0,
        0.0,
        1.0,
        1.4210854715201997e-14,
        0.0,
        0.0,
        -1.4210854715201997e-14,
        1.0,
        0.0,
        0.0,
        0.0,
        0.0,
        1.0
      ],
      "name": "Object_21"
    },
    {
      "mesh": 8,
      "name": "Object_21_material00_0"
    },
    {
      "children": [
        40
      ],
      "matrix": [
        1.0,
        0.0,
        0.0,
        0.0,
        0.0,
        1.0,
        1.4210854715202002e-14,
        0.0,
        0.0,
        -1.4210854715202002e-14,
        1.0,
        0.0,
        0.0,
        0.0,
        0.0,
        1.0
      ],
      "name": "custom_vis_LIGHT_NAV_01_mcx_VC_9"
    },
    {
      "children": [
        41
      ],
      "matrix": [
        1.0,
        0.0,
        0.0,
        0.0,
        0.0,
        1.0,
        1.4210854715201997e-14,
        0.0,
        0.0,
        -1.4210854715201997e-14,
        1.0,
        0.0,
        0.0,
        0.0,
        0.0,
        1.0
      ],
      "name": "Object_23"
    },
    {
      "mesh": 9,
      "name": "Object_23_material05_0"
    },
    {
      "children": [
        43
      ],
      "matrix": [
        1.0,
        0.0,
        0.0,
        0.0,
        0.0,
        1.0,
        1.4210854715202002e-14,
        0.0,
        0.0,
        -1.4210854715202002e-14,
        1.0,
        0.0,
        0.0,
        0.0,
        0.0,
        1.0
      ],
      "name": "custom_vis_TIME_OF_DAY_05_mcx_VC_0_10"
    },
    {
      "children": [
        44
      ],
      "matrix": [
        1.0,
        0.0,
        0.0,
        0.0,
        0.0,
        1.0,
        1.4210854715201997e-14,
        0.0,
        0.0,
        -1.4210854715201997e-14,
        1.0,
        0.0,
        0.0,
        0.0,
        0.0,
        1.0
      ],
      "name": "Object_25"
    },
    {
      "mesh": 10,
      "name": "Object_25_material07_0"
    },
    {
      "children": [
        46
      ],
      "matrix": [
        1.0,
        0.0,
        0.0,
        0.0,
        0.0,
        1.0,
        1.4210854715202002e-14,
        0.0,
        0.0,
        -1.4210854715202002e-14,
        1.0,
        0.0,
        0.0,
        0.0,
        0.0,
        1.0
      ],
      "name": "custom_vis_TIME_OF_DAY_05_mcx_VC_1_11"
    },
    {
      "children": [
        47
      ],
      "matrix": [
        1.0,
        0.0,
        0.0,
        0.0,
        0.0,
        1.0,
        1.4210854715201997e-14,
        0.0,
        0.0,
        -1.4210854715201997e-14,
        1.0,
        0.0,
        0.0,
        0.0,
        0.0,
        1.0
      ],
      "name": "Object_27"
    },
    {
      "mesh": 11,
      "name": "Object_27_Material.006_0"
    },
    {
      "children": [
        49
      ],
      "matrix": [
        1.0,
        0.0,
        0.0,
        0.0,
        0.0,
        1.0,
        1.4210854715202002e-14,
        0.0,
        0.0,
        -1.4210854715202002e-14,
        1.0,
        0.0,
        0.0,
        0.0,
        0.0,
        1.0
      ],
      "name": "custom_vis_TIME_OF_DAY_06_mcx_VC_0_12"
    },
    {
      "children": [
        50
      ],
      "matrix": [
        1.0,
        0.0,
        0.0,
        0.0,
        0.0,
        1.0,
        1.4210854715201997e-14,
        0.0,
        0.0,
        -1.4210854715201997e-14,
        1.0,
        0.0,
        0.0,
        0.0,
        0.0,
        1.0
      ],
      "name": "Object_29"
    },
    {
      "mesh": 12,
      "name": "Object_29_material08_0"
    },
    {
      "children": [
        52
      ],
      "matrix": [
        1.0,
        0.0,
        0.0,
        0.0,
        0.0,
        1.0,
        1.4210854715202002e-14,
        0.0,
        0.0,
        -1.4210854715202002e-14,
        1.0,
        0.0,
        0.0,
        0.0,
        0.0,
        1.0
      ],
      "name": "node_102_13"
    },
    {
      "children": [
        53
      ],
      "matrix": [
        1.0,
        0.0,
        0.0,
        0.0,
        0.0,
        1.0,
        1.4210854715201997e-14,
        0.0,
        0.0,
        -1.4210854715201997e-14,
        1.0,
        0.0,
        0.0,
        0.0,
        0.0,
        1.0
      ],
      "name": "Object_31"
    },
    {
      "mesh": 13,
      "name": "Object_31_material01_0"
    },
    {
      "children": [
        55
      ],
      "matrix": [
        1.0,
        0.0,
        0.0,
        0.0,
        0.0,
        1.0,
        1.4210854715202002e-14,
        0.0,
        0.0,
        -1.4210854715202002e-14,
        1.0,
        0.0,
        0.0,
        0.0,
        0.0,
        1.0
      ],
      "name": "node_87_136"
    },
    {
      "children": [
        56
      ],
      "matrix": [
        1.0,
        0.0,
        0.0,
        0.0,
        0.0,
        1.0,
        1.4210854715201997e-14,
        0.0,
        0.0,
        -1.4210854715201997e-14,
        1.0,
        0.0,
        0.0,
        0.0,
        0.0,
        1.0
      ],
      "name": "Object_33"
    },
    {
      "mesh": 14,
      "name": "Object_33_Material.003_0"
    },
    {
      "children": [
        58
      ],
      "matrix": [
        1.0,
        0.0,
        0.0,
        0.0,
        0.0,
        1.0,
        1.4210854715202002e-14,
        0.0,
        0.0,
        -1.4210854715202002e-14,
        1.0,
        0.0,
        0.0,
        0.0,
        0.0,
        1.0
      ],
      "name": "node_88_137"
    },
    {
      "children": [
        59
      ],
      "matrix": [
        1.0,
        0.0,
        0.0,
        0.0,
        0.0,
        1.0,
        1.4210854715201997e-14,
        0.0,
        0.0,
        -1.4210854715201997e-14,
        1.0,
        0.0,
        0.0,
        0.0,
        0.0,
        1.0
      ],
      "name": "Object_35"
    },
    {
      "mesh": 15,
      "name": "Object_35_Material.002_0"
    },
    {
      "children": [
        61
      ],
      "matrix": [
        1.0,
        0.0,
        0.0,
        0.0,
        0.0,
        1.0,
        1.4210854715202002e-14,
        0.0,
        0.0,
        -1.4210854715202002e-14,
        1.0,
        0.0,
        0.0,
        0.0,
        0.0,
        1.0
      ],
      "name": "node_89_138"
    },
    {
      "children": [
        62
      ],
      "matrix": [
        1.0,
        0.0,
        0.0,
        0.0,
        0.0,
        1.0,
        1.4210854715201997e-14,
        0.0,
        0.0,
        -1.4210854715201997e-14,
        1.0,
        0.0,
        0.0,
        0.0,
        0.0,
        1.0
      ],
      "name": "Object_37"
    },
    {
      "mesh": 16,
      "name": "Object_37_material09_0"
    },
    {
      "children": [
        64
      ],
      "matrix": [
        1.0,
        0.0,
        0.0,
        0.0,
        0.0,
        1.0,
        1.4210854715202002e-14,
        0.0,
        0.0,
        -1.4210854715202002e-14,
        1.0,
        0.0,
        0.0,
        0.0,
        0.0,
        1.0
      ],
      "name": "node_90_139"
    },
    {
      "children": [
        65
      ],
      "matrix": [
        1.0,
        0.0,
        0.0,
        0.0,
        0.0,
        1.0,
        1.4210854715201997e-14,
        0.0,
        0.0,
        -1.4210854715201997e-14,
        1.0,
        0.0,
        0.0,
        0.0,
        0.0,
        1.0
      ],
      "name": "Object_39"
    },
    {
      "mesh": 17,
      "name": "Object_39_material09_0"
    },
    {
      "children": [
        67
      ],
      "matrix": [
        1.0,
        0.0,
        0.0,
        0.0,
        0.0,
        1.0,
        1.4210854715202002e-14,
        0.0,
        0.0,
        -1.4210854715202002e-14,
        1.0,
        0.0,
        0.0,
        0.0,
        0.0,
        1.0
      ],
      "name": "node_91_140"
    },
    {
      "children": [
        68
      ],
      "matrix": [
        1.0,
        0.0,
        0.0,
        0.0,
        0.0,
        1.0,
        1.4210854715201997e-14,
        0.0,
        0.0,
        -1.4210854715201997e-14,
        1.0,
        0.0,
        0.0,
        0.0,
        0.0,
        1.0
      ],
      "name": "Object_41"
    },
    {
      "mesh": 18,
      "name": "Object_41_material07_0"
    },
    {
      "children": [
        70
      ],
      "matrix": [
        1.0,
        0.0,
        0.0,
        0.0,
        0.0,
        1.0,
        1.4210854715202002e-14,
        0.0,
        0.0,
        -1.4210854715202002e-14,
        1.0,
        0.0,
        0.0,
        0.0,
        0.0,
        1.0
      ],
      "name": "node_92_141"
    },
    {
      "children": [
        71
      ],
      "matrix": [
        1.0,
        0.0,
        0.0,
        0.0,
        0.0,
        1.0,
        1.4210854715201997e-14,
        0.0,
        0.0,
        -1.4210854715201997e-14,
        1.0,
        0.0,
        0.0,
        0.0,
        0.0,
        1.0
      ],
      "name": "Object_43"
    },
    {
      "mesh": 19,
      "name": "Object_43_Material.008_0"
    },
    {
      "children": [
        73
      ],
      "matrix": [
        1.0,
        0.0,
        0.0,
        0.0,
        0.0,
        1.0,
        1.4210854715202002e-14,
        0.0,
        0.0,
        -1.4210854715202002e-14,
        1.0,
        0.0,
        0.0,
        0.0,
        0.0,
        1.0
      ],
      "name": "node_93_142"
    },
    {
      "children": [
        74
      ],
      "matrix": [
        1.0,
        0.0,
        0.0,
        0.0,
        0.0,
        1.0,
        1.4210854715201997e-14,
        0.0,
        0.0,
        -1.4210854715201997e-14,
        1.0,
        0.0,
        0.0,
        0.0,
        0.0,
        1.0
      ],
      "name": "Object_45"
    },
    {
      "mesh": 20,
      "name": "Object_45_Material.001_0"
    },
    {
      "children": [
        76
      ],
      "matrix": [
        1.0,
        0.0,
        0.0,
        0.0,
        0.0,
        1.0,
        1.4210854715202002e-14,
        0.0,
        0.0,
        -1.4210854715202002e-14,
        1.0,
        0.0,
        0.0,
        0.0,
        0.0,
        1.0
      ],
      "name": "node_94_143"
    },
    {
      "children": [
        77
      ],
      "matrix": [
        1.0,
        0.0,
        0.0,
        0.0,
        0.0,
        1.0,
        1.4210854715201997e-14,
        0.0,
        0.0,
        -1.4210854715201997e-14,
        1.0,
        0.0,
        0.0,
        0.0,
        0.0,
        1.0
      ],
      "name": "Object_47"
    },
    {
      "mesh": 21,
      "name": "Object_47_Material.009_0"
    },
    {
      "children": [
        79
      ],
      "matrix": [
        1.0,
        0.0,
        0.0,
        0.0,
        0.0,
        1.0,
        1.4210854715202002e-14,
        0.0,
        0.0,
        -1.4210854715202002e-14,
        1.0,
        0.0,
        0.0,
        0.0,
        0.0,
        1.0
      ],
      "name": "node_96_144"
    },
    {
      "children": [
        80
      ],
      "matrix": [
        1.0,
        0.0,
        0.0,
        0.0,
        0.0,
        1.0,
        1.4210854715201997e-14,
        0.0,
        0.0,
        -1.4210854715201997e-14,
        1.0,
        0.0,
        0.0,
        0.0,
        0.0,
        1.0
      ],
      "name": "Object_49"
    },
    {
      "mesh": 22,
      "name": "Object_49_material02_0"
    }
  ],
  "samplers": [
    {
      "magFilter": 9729,
      "minFilter": 9987,
      "wrapS": 10497,
      "wrapT": 10497
    }
  ],
  "scene": 0,
  "scenes": [
    {
      "name": "Sketchfab_Scene",
      "nodes": [
        0
      ]
    }
  ],
  "textures": [
    {
      "sampler": 0,
      "source": 0
    }
  ]
}
