{
  "accessors": [
    {
      "bufferView": 2,
      "componentType": 5126,
      "count": 754,
      "max": [
        31.87833023071289,
        12.424880027770996,
        8.188944816589355
      ],
      "min": [
        -31.87822914123535,
        7.084436893463135,
        6.887269973754883
      ],
      "type": "VEC3"
    },
    {
      "bufferView": 2,
      "byteOffset": 9048,
      "componentType": 5126,
      "count": 754,
      "max": [
        0.9215574264526367,
        0.19487309455871582,
        0.9994457960128784
      ],
      "min": [
        -0.9210184812545776,
        -0.7346189618110657,
        -0.9990706443786621
      ],
      "type": "VEC3"
    },
    {
      "bufferView": 1,
      "componentType": 5126,
      "count": 754,
      "max": [
        0.0,
        0.0
      ],
      "min": [
        0.0,
        0.0
      ],
      "type": "VEC2"
    },
    {
      "bufferView": 0,
      "componentType": 5125,
      "count": 2994,
      "type": "SCALAR"
    },
    {
      "bufferView": 2,
      "byteOffset": 18096,
      "componentType": 5126,
      "count": 7436,
      "max": [
        11.274250030517578,
        -0.4431211054325104,
        5.364786148071289
      ],
      "min": [
        -11.323380470275879,
        -10.590080261230469,
        1.0818300247192383
      ],
      "type": "VEC3"
    },
    {
      "bufferView": 2,
      "byteOffset": 107328,
      "componentType": 5126,
      "count": 7436,
      "max": [
        1.0,
        1.0,
        1.0
      ],
      "min": [
        -1.0,
        -1.0,
        -1.0
      ],
      "type": "VEC3"
    },
    {
      "bufferView": 1,
      "byteOffset": 6032,
      "componentType": 5126,
      "count": 7436,
      "max": [
        0.9995130896568298,
        0.9995130896568298
      ],
      "min": [
        0.00048690030234865844,
        0.08460742235183716
      ],
      "type": "VEC2"
    },
    {
      "bufferView": 0,
      "byteOffset": 11976,
      "componentType": 5125,
      "count": 23682,
      "type": "SCALAR"
    },
    {
      "bufferView": 2,
      "byteOffset": 196560,
      "componentType": 5126,
      "count": 1460,
      "max": [
        11.20730972290039,
        1.565600037574768,
        4.948451995849609
      ],
      "min": [
        -11.238800048828125,
        -7.187140941619873,
        1.107470989227295
      ],
      "type": "VEC3"
    },
    {
      "bufferView": 2,
      "byteOffset": 214080,
      "componentType": 5126,
      "count": 1460,
      "max": [
        0.9999986290931702,
        0.9988810420036316,
        0.9999620318412781
      ],
      "min": [
        -0.9999998807907104,
        -1.0,
        -0.9999967813491821
      ],
      "type": "VEC3"
    },
    {
      "bufferView": 1,
      "byteOffset": 65520,
      "componentType": 5126,
      "count": 1460,
      "max": [
        0.999792218208313,
        0.9997919797897339
      ],
      "min": [
        0.00020794560259673744,
        0.12200020253658295
      ],
      "type": "VEC2"
    },
    {
      "bufferView": 0,
      "byteOffset": 106704,
      "componentType": 5125,
      "count": 4467,
      "type": "SCALAR"
    },
    {
      "bufferView": 2,
      "byteOffset": 231600,
      "componentType": 5126,
      "count": 3086,
      "max": [
        10.879300117492676,
        -8.539748191833496,
        4.579108238220215
      ],
      "min": [
        -10.906149864196777,
        -9.722643852233887,
        1.3918319940567017
      ],
      "type": "VEC3"
    },
    {
      "bufferView": 2,
      "byteOffset": 268632,
      "componentType": 5126,
      "count": 3086,
      "max": [
        0.9993203282356262,
        0.9339093565940857,
        0.9993340373039246
      ],
      "min": [
        -0.999427855014801,
        -1.0,
        -0.9992859959602356
      ],
      "type": "VEC3"
    },
    {
      "bufferView": 1,
      "byteOffset": 77200,
      "componentType": 5126,
      "count": 3086,
      "max": [
        0.918913722038269,
        0.9994531869888306
      ],
      "min": [
        0.0005468230810947716,
        0.0005468130111694336
      ],
      "type": "VEC2"
    },
    {
      "bufferView": 0,
      "byteOffset": 124572,
      "componentType": 5125,
      "count": 7428,
      "type": "SCALAR"
    },
    {
      "bufferView": 2,
      "byteOffset": 305664,
      "componentType": 5126,
      "count": 1614,
      "max": [
        19.537900924682617,
        8.794346809387207,
        8.412986755371094
      ],
      "min": [
        -9.32116985321045,
        -22.680599212646484,
        2.347243070602417
      ],
      "type": "VEC3"
    },
    {
      "bufferView": 2,
      "byteOffset": 325032,
      "componentType": 5126,
      "count": 1614,
      "max": [
        1.0,
        0.9999948740005493,
        0.9999973773956299
      ],
      "min": [
        -1.0,
        -0.9998777508735657,
        -0.9999999403953552
      ],
      "type": "VEC3"
    },
    {
      "bufferView": 1,
      "byteOffset": 101888,
      "componentType": 5126,
      "count": 1614,
      "max": [
        0.9985299706459045,
        0.9937000274658203
      ],
      "min": [
        0.0005000000237487257,
        0.004750012885779142
      ],
      "type": "VEC2"
    },
    {
      "bufferView": 0,
      "byteOffset": 154284,
      "componentType": 5125,
      "count": 4971,
      "type": "SCALAR"
    },
    {
      "bufferView": 2,
      "byteOffset": 344400,
      "componentType": 5126,
      "count": 7311,
      "max": [
        28.900009155273438,
        31.789579391479492,
        16.706819534301758
      ],
      "min": [
        -28.900009155273438,
        -31.84465980529785,
        -0.0829787328839302
      ],
      "type": "VEC3"
    },
    {
      "bufferView": 2,
      "byteOffset": 432132,
      "componentType": 5126,
      "count": 7311,
      "max": [
        1.0,
        1.0,
        1.0
      ],
      "min": [
        -1.0,
        -1.0,
        -0.9999997615814209
      ],
      "type": "VEC3"
    },
    {
      "bufferView": 1,
      "byteOffset": 114800,
      "componentType": 5126,
      "count": 7311,
      "max": [
        0.9986100196838379,
        0.9935058951377869
      ],
      "min": [
        0.0037700000684708357,
        0.03143000975251198
      ],
      "type": "VEC2"
    },
    {
      "bufferView": 0,
      "byteOffset": 174168,
      "componentType": 5125,
      "count": 20502,
      "type": "SCALAR"
    },
    {
      "bufferView": 2,
      "byteOffset": 519864,
      "componentType": 5126,
      "count": 8498,
      "max": [
        8.93466854095459,
        0.36208081245422363,
        5.518432140350342
      ],
      "min": [
        -8.930170059204102,
        -25.90822982788086,
        0.29567620158195496
      ],
      "type": "VEC3"
    },
    {
      "bufferView": 2,
      "byteOffset": 621840,
      "componentType": 5126,
      "count": 8498,
      "max": [
        1.0,
        0.9995961785316467,
        0.9999910593032837
      ],
      "min": [
        -1.0,
        -0.9998853802680969,
        -0.9999926686286926
      ],
      "type": "VEC3"
    },
    {
      "bufferView": 1,
      "byteOffset": 173288,
      "componentType": 5126,
      "count": 8498,
      "max": [
        0.9946600198745728,
        0.9191300272941589
      ],
      "min": [
        0.011749999597668648,
        0.005339980125427246
      ],
      "type": "VEC2"
    },
    {
      "bufferView": 0,
      "byteOffset": 256176,
      "componentType": 5125,
      "count": 21228,
      "type": "SCALAR"
    },
    {
      "bufferView": 2,
      "byteOffset": 723816,
      "componentType": 5126,
      "count": 5996,
      "max": [
        19.687070846557617,
        31.84469985961914,
        16.713029861450195
      ],
      "min": [
        -28.664989471435547,
        -25.801359176635742,
        0.312652587890625
      ],
      "type": "VEC3"
    },
    {
      "bufferView": 2,
      "byteOffset": 795768,
      "componentType": 5126,
      "count": 5996,
      "max": [
        1.0,
        1.0,
        1.0
      ],
      "min": [
        -1.0,
        -0.9998007416725159,
        -1.0
      ],
      "type": "VEC3"
    },
    {
      "bufferView": 1,
      "byteOffset": 241272,
      "componentType": 5126,
      "count": 5996,
      "max": [
        0.9879500269889832,
        0.9191300272941589
      ],
      "min": [
        0.0038999998942017555,
        0.005339980125427246
      ],
      "type": "VEC2"
    },
    {
      "bufferView": 0,
      "byteOffset": 341088,
      "componentType": 5125,
      "count": 17196,
      "type": "SCALAR"
    }
  ],
  "asset": {
    "extras": {
      "author": "Ahmed Mahdi (https://sketchfab.com/mhmdshwatahmdmhdy922)",
      "license": "CC-BY-4.0 (http://creativecommons.org/licenses/by/4.0/)",
      "source": "https://sketchfab.com/3d-models/airbus-a330-900-neo-0cc4dcda3db8459687138e8dde33ac9d",
      "title": "Airbus_a330-900_neo"
    },
    "generator": "Sketchfab-16.95.0",
    "version": "2.0"
  },
  "bufferViews": [
    {
      "buffer": 0,
      "byteLength": 409872,
      "name": "floatBufferViews",
      "target": 34963
    },
    {
      "buffer": 0,
      "byteLength": 289240,
      "byteOffset": 409872,
      "byteStride": 8,
      "name": "floatBufferViews",
      "target": 34962
    },
    {
      "buffer": 0,
      "byteLength": 867720,
      "byteOffset": 699112,
      "byteStride": 12,
      "name": "floatBufferViews",
      "target": 34962
    }
  ],
  "buffers": [
    {
      "byteLength": 1566832,
      "uri": "scene.bin"
    }
  ],
  "extensionsUsed": [
    "KHR_materials_clearcoat"
  ],
  "images": [
    {
      "uri": "textures/Material_baseColor.jpg"
    },
    {
      "uri": "textures/Material_1_baseColor.jpg"
    },
    {
      "uri": "textures/Material_2_baseColor.jpg"
    },
    {
      "uri": "textures/Material_3_baseColor.jpg"
    }
  ],
  "materials": [
    {
      "extensions": {
        "KHR_materials_clearcoat": {
          "clearcoatFactor": 1.0,
          "clearcoatRoughnessFactor": 0.04
        }
      },
      "name": "Material",
      "pbrMetallicRoughness": {
        "baseColorTexture": {
          "index": 0
        },
        "roughnessFactor": 0.6
      }
    },
    {
      "doubleSided": true,
      "name": "Material_1",
      "pbrMetallicRoughness": {
        "baseColorTexture": {
          "index": 1
        },
        "metallicFactor": 0.0,
        "roughnessFactor": 0.6
      }
    },
    {
      "doubleSided": true,
      "name": "Material_2",
      "pbrMetallicRoughness": {
        "baseColorTexture": {
          "index": 2
        },
        "metallicFactor": 0.0,
        "roughnessFactor": 0.6
      }
    },
    {
      "doubleSided": true,
      "name": "Material_3",
      "pbrMetallicRoughness": {
        "baseColorTexture": {
          "index": 3
        },
        "metallicFactor": 0.0,
        "roughnessFactor": 0.6
      }
    },
    {
      "doubleSided": true,
      "name": "material02",
      "pbrMetallicRoughness": {
        "baseColorTexture": {
          "index": 0
        },
        "metallicFactor": 0.0,
        "roughnessFactor": 0.6
      }
    }
  ],
  "meshes": [
    {
      "name": "Object_0",
      "primitives": [
        {
          "attributes": {
            "NORMAL": 1,
            "POSITION": 0,
            "TEXCOORD_0": 2
          },
          "indices": 3,
          "material": 0,
          "mode": 4
        }
      ]
    },
    {
      "name": "Object_1",
      "primitives": [
        {
          "attributes": {
            "NORMAL": 5,
            "POSITION": 4,
            "TEXCOORD_0": 6
          },
          "indices": 7,
          "material": 1,
          "mode": 4
        }
      ]
    },
    {
      "name": "Object_2",
      "primitives": [
        {
          "attributes": {
            "NORMAL": 9,
            "POSITION": 8,
            "TEXCOORD_0": 10
          },
          "indices": 11,
          "material": 2,
          "mode": 4
        }
      ]
    },
    {
      "name": "Object_3",
      "primitives": [
        {
          "attributes": {
            "NORMAL": 13,
            "POSITION": 12,
            "TEXCOORD_0": 14
          },
          "indices": 15,
          "material": 3,
          "mode": 4
        }
      ]
    },
    {
      "name": "Object_4",
      "primitives": [
        {
          "attributes": {
            "NORMAL": 17,
            "POSITION": 16,
            "TEXCOORD_0": 18
          },
          "indices": 19,
          "material": 4,
          "mode": 4
        }
      ]
    },
    {
      "name": "Object_5",
      "primitives": [
        {
          "attributes": {
            "NORMAL": 21,
            "POSITION": 20,
            "TEXCOORD_0": 22
          },
          "indices": 23,
          "material": 4,
          "mode": 4
        }
      ]
    },
    {
      "name": "Object_6",
      "primitives": [
        {
          "attributes": {
            "NORMAL": 25,
            "POSITION": 24,
            "TEXCOORD_0": 26
          },
          "indices": 27,
          "material": 4,
          "mode": 4
        }
      ]
    },
    {
      "name": "Object_7",
      "primitives": [
        {
          "attributes": {
            "NORMAL": 29,
            "POSITION": 28,
            "TEXCOORD_0": 30
          },
          "indices": 31,
          "material": 4,
          "mode": 4
        }
      ]
    }
  ],
  "nodes": [
    {
      "children": [
        1
      ],
      "matrix": [
        1.0,
        0.0,
        0.0,
        0.0,
        0.0,
        2.220446049250313e-16,
        -1.0,
        0.0,
        0.0,
        1.0,
        2.220446049250313e-16,
        0.0,
        0.0,
        0.0,
        0.0,
        1.0
      ],
      "name": "Sketchfab_model"
    },
    {
      "children": [
        2,
        3,
        4,
        5,
        6,
        7,
        8,
        9
      ],
      "name": "f763b8f539f549888c2d6db78704f2e6.obj.cleaner.materialmerger.gles"
    },
    {
      "mesh": 0,
      "name": "Object_2"
    },
    {
      "mesh": 1,
      "name": "Object_3"
    },
    {
      "mesh": 2,
      "name": "Object_4"
    },
    {
      "mesh": 3,
      "name": "Object_5"
    },
    {
      "mesh": 4,
      "name": "Object_6"
    },
    {
      "mesh": 5,
      "name": "Object_7"
    },
    {
      "mesh": 6,
      "name": "Object_8"
    },
    {
      "mesh": 7,
      "name": "Object_9"
    }
  ],
  "samplers": [
    {
      "magFilter": 9729,
      "minFilter": 9987,
      "wrapS": 10497,
      "wrapT": 10497
    }
  ],
  "scene": 0,
  "scenes": [
    {
      "name": "Sketchfab_Scene",
      "nodes": [
        0
      ]
    }
  ],
  "textures": [
    {
      "sampler": 0,
      "source": 0
    },
    {
      "sampler": 0,
      "source": 1
    },
    {
      "sampler": 0,
      "source": 2
    },
    {
      "sampler": 0,
      "source": 3
    }
  ]
}
